#!OML:ASF X:\für Bonn\!DataBase\2005_08_10_Bjorn_Final\c3d\bjorn.ASF
:FULLY-SPECIFIED
:DEGREES
158
root -0.0526277 6.39536 18.8872 -395.177 -189.331 -12.6311
lowerback 49.8394 -19.7305 4.02135
upperback 24.1712 -8.85334 1.03237
thorax 6.6206 1.27594 2.7375
lowerneck 2.6289 6.47126 18.1013
upperneck -12.0432 9.24678 -11.3529
head -2.62222 4.66371 -6.61912
rclavicle -1.145e-013 1.33583e-013
rhumerus -200.821 -143.055 111.829
rradius 35.0092
rwrist -13.2983
rhand -22.8504 6.19633
rfingers 7.12502
rthumb 3.58762 -23.7532
lclavicle -1.145e-013 1.33583e-013
lhumerus -398.934 -23.011 -299.596
lradius 65.8115
lwrist 20.2138
lhand -20.4074 -5.45704
lfingers 7.12502
lthumb 5.94646 24.4395
rfemur -103.487 -104.634 9.90304
rtibia 150.628
rfoot -65.8479 48.1765
rtoes -13.7768
lfemur -60.6996 56.6367 4.43292
ltibia 147.129
lfoot -38.1348 -9.49924
ltoes -18.632
159
root -0.000327443 6.3155 18.9117 -395.804 -188.941 -12.5469
lowerback 49.6238 -19.6793 3.95347
upperback 24.1704 -8.94479 0.543097
thorax 6.56486 1.28516 2.26007
lowerneck 2.3221 6.54148 18.8136
upperneck -11.6574 9.31792 -11.4968
head -2.40941 4.68022 -6.74248
rclavicle 5.40694e-014 -4.77083e-015
rhumerus -201.735 -142.912 111.182
rradius 34.9238
rwrist -13.1716
rhand -23.1546 6.07469
rfingers 7.12502
rthumb 3.29377 -23.8796
lclavicle 5.40694e-014 -4.77083e-015
lhumerus -398.84 -21.2064 -298.362
lradius 63.5589
lwrist 19.6533
lhand -20.4883 -5.9893
lfingers 7.12502
lthumb 5.86843 23.9094
rfemur -104.276 -106.462 10.3335
rtibia 151.102
rfoot -66.7757 47.7174
rtoes -13.7079
lfemur -60.0206 57.0955 5.88034
ltibia 147.299
lfoot -38.1294 -10.2393
ltoes -19.0982
160
root 0.0513092 6.23987 18.9358 -396.417 -188.553 -12.4447
lowerback 49.391 -19.605 3.87591
upperback 24.1954 -8.99567 0.0935383
thorax 6.54614 1.31278 1.81882
lowerneck 1.93605 6.59631 19.4761
upperneck -11.1906 9.34567 -11.6162
head -2.1698 4.676 -6.84433
rclavicle -6.67916e-014 6.20208e-014
rhumerus -202.609 -142.794 110.601
rradius 34.8097
rwrist -13.139
rhand -23.3852 5.99576
rfingers 7.12502
rthumb 3.07113 -23.9619
lclavicle -6.67916e-014 6.20208e-014
lhumerus -398.626 -19.2129 -297.194
lradius 61.1209
lwrist 18.8617
lhand -20.6278 -6.62358
lfingers 7.12502
lthumb 5.73367 23.2789
rfemur -105.086 -108.274 10.8277
rtibia 151.548
rfoot -67.7451 47.1629
rtoes -13.7768
lfemur -59.4154 57.4335 7.24207
ltibia 147.431
lfoot -38.0694 -10.9789
ltoes -19.4501
161
root 0.101672 6.16919 18.9603 -397.04 -188.159 -12.3183
lowerback 49.2284 -19.524 3.78493
upperback 24.1905 -9.02767 -0.312583
thorax 6.49284 1.34294 1.42619
lowerneck 1.58338 6.66286 20.0778
upperneck -10.7108 9.38861 -11.7003
head -1.93445 4.6819 -6.92628
rclavicle -8.26944e-014 -2.36951e-013
rhumerus -203.473 -142.723 110.074
rradius 34.6798
rwrist -13.1541
rhand -23.6377 5.87479
rfingers 7.12502
rthumb 2.82723 -24.0862
lclavicle -8.26944e-014 -2.36951e-013
lhumerus -398.384 -17.1575 -296.046
lradius 58.5873
lwrist 17.844
lhand -20.8026 -7.21658
lfingers 7.12502
lthumb 5.56496 22.6903
rfemur -106.009 -109.994 11.4653
rtibia 151.947
rfoot -68.5932 46.6562
rtoes -13.7055
lfemur -58.8333 57.5905 8.52469
ltibia 147.53
lfoot -38.0035 -11.6421
ltoes -19.8008
162
root 0.151533 6.1032 18.9855 -397.668 -187.756 -12.2101
lowerback 49.1078 -19.4098 3.6422
upperback 24.1779 -9.02896 -0.689139
thorax 6.43463 1.37973 1.0792
lowerneck 1.16577 6.74342 20.6465
upperneck -10.1417 9.42696 -11.7992
head -1.6631 4.68819 -7.00158
rclavicle 2.8625e-014 7.63333e-014
rhumerus -204.304 -142.647 109.577
rradius 34.5187
rwrist -13.139
rhand -23.9233 5.74654
rfingers 7.12502
rthumb 2.55142 -24.2179
lclavicle 2.8625e-014 7.63333e-014
lhumerus -398.112 -15.0897 -294.931
lradius 56.0136
lwrist 16.6171
lhand -20.9941 -7.61858
lfingers 7.12502
lthumb 5.38002 22.2931
rfemur -107.001 -111.589 12.1639
rtibia 152.313
rfoot -69.3206 46.2434
rtoes -13.4272
lfemur -58.2978 57.6283 9.68184
ltibia 147.586
lfoot -37.904 -12.2743
ltoes -20.1819
163
root 0.200501 6.04262 19.0112 -398.312 -187.37 -12.053
lowerback 49.0334 -19.3 3.49259
upperback 24.1695 -9.01143 -1.01939
thorax 6.38525 1.42581 0.781905
lowerneck 0.780175 6.81779 21.1151
upperneck -9.58528 9.45446 -11.8784
head -1.40776 4.69224 -7.05805
rclavicle -6.67916e-014 -3.18055e-014
rhumerus -205.089 -142.556 109.142
rradius 34.321
rwrist -13.1599
rhand -24.1419 5.62667
rfingers 7.12502
rthumb 2.34031 -24.3402
lclavicle -6.67916e-014 -3.18055e-014
lhumerus -397.744 -12.9274 -293.834
lradius 53.267
lwrist 15.0552
lhand -21.1659 -7.6865
lfingers 7.12502
lthumb 5.2142 22.2294
rfemur -108.014 -113.173 13.0018
rtibia 152.631
rfoot -70.0922 45.6381
rtoes -13.4222
lfemur -57.7776 57.5073 10.8126
ltibia 147.6
lfoot -37.8161 -12.944
ltoes -20.6089
164
root 0.249392 5.98412 19.0364 -398.944 -186.965 -11.9338
lowerback 48.9529 -19.1348 3.25892
upperback 24.1748 -8.95636 -1.31436
thorax 6.36589 1.47782 0.54652
lowerneck 0.42901 6.88814 21.5532
upperneck -9.09684 9.47893 -11.9728
head -1.17896 4.69679 -7.1195
rclavicle -6.67916e-014 1.11319e-014
rhumerus -205.787 -142.408 108.736
rradius 34.0328
rwrist -13.109
rhand -24.3542 5.52809
rfingers 7.12502
rthumb 2.13524 -24.441
lclavicle -6.67916e-014 1.11319e-014
lhumerus -397.18 -10.5581 -292.835
lradius 50.2558
lwrist 13.071
lhand -21.2321 -7.5204
lfingers 7.12502
lthumb 5.15026 22.397
rfemur -109.02 -114.622 13.747
rtibia 152.935
rfoot -70.7606 45.1839
rtoes -13.2893
lfemur -57.2958 57.383 11.8292
ltibia 147.604
lfoot -37.6883 -13.6077
ltoes -20.8036
165
root 0.297165 5.93042 19.0631 -399.574 -186.567 -11.7858
lowerback 48.8964 -18.9673 3.05397
upperback 24.1593 -8.88345 -1.59164
thorax 6.32152 1.53829 0.312813
lowerneck 0.164653 6.9319 21.876
upperneck -8.66507 9.48716 -11.962
head -0.995409 4.69435 -7.13723
rclavicle -7.31528e-014 6.20208e-014
rhumerus -206.512 -142.217 108.385
rradius 33.6921
rwrist -12.9998
rhand -24.5603 5.44916
rfingers 7.12502
rthumb 1.93624 -24.5218
lclavicle -7.31528e-014 6.20208e-014
lhumerus -396.59 -8.19572 -291.905
lradius 47.0661
lwrist 10.8324
lhand -21.4602 -7.25246
lfingers 7.12502
lthumb 4.92999 22.6702
rfemur -110.016 -115.976 14.5633
rtibia 153.21
rfoot -71.3496 44.6265
rtoes -13.2684
lfemur -56.9833 57.05 12.6277
ltibia 147.567
lfoot -37.4899 -14.1999
ltoes -21.1112
166
root 0.344769 5.8807 19.0901 -400.223 -186.175 -11.6385
lowerback 48.8364 -18.7754 2.77277
upperback 24.2115 -8.77102 -1.83588
thorax 6.37003 1.62222 0.138792
lowerneck -0.123402 6.97789 22.0658
upperneck -8.33879 9.49539 -11.9078
head -0.847749 4.69406 -7.12414
rclavicle 2.54444e-014 -6.52014e-014
rhumerus -207.052 -141.952 108.018
rradius 33.2732
rwrist -12.8809
rhand -24.7898 5.38293
rfingers 7.12502
rthumb 1.71462 -24.5899
lclavicle 2.54444e-014 -6.52014e-014
lhumerus -395.881 -5.89161 -290.999
lradius 43.7074
lwrist 8.72206
lhand -22.124 -7.0536
lfingers 7.12502
lthumb 4.28905 22.883
rfemur -111.014 -117.313 15.4004
rtibia 153.436
rfoot -71.9139 44.1732
rtoes -13.0183
lfemur -56.6985 56.5992 13.3514
ltibia 147.504
lfoot -37.2489 -14.8251
ltoes -21.3311
167
root 0.391725 5.83121 19.1164 -400.883 -185.759 -11.5039
lowerback 48.7836 -18.5741 2.47664
upperback 24.2585 -8.65139 -2.09279
thorax 6.41233 1.71009 -0.043761
lowerneck -0.331431 7.01204 22.1673
upperneck -8.09911 9.50774 -11.7842
head -0.74621 4.69701 -7.0822
rclavicle -2.8625e-014 -8.5875e-014
rhumerus -207.619 -141.542 107.693
rradius 32.7761
rwrist -12.6315
rhand -24.9638 5.29818
rfingers 7.12502
rthumb 1.54655 -24.676
lclavicle -2.8625e-014 -8.5875e-014
lhumerus -395.144 -3.58601 -290.227
lradius 40.1802
lwrist 6.58935
lhand -22.9279 -6.8456
lfingers 7.12502
lthumb 3.51268 23.1052
rfemur -112.038 -118.595 16.2198
rtibia 153.66
rfoot -72.4718 43.6746
rtoes -13.0043
lfemur -56.3607 56.1876 14.0675
ltibia 147.432
lfoot -37.0402 -15.4194
ltoes -21.5977
168
root 0.437701 5.78771 19.1426 -401.476 -185.448 -11.2925
lowerback 48.6705 -18.3671 2.2886
upperback 24.3223 -8.48124 -2.30468
thorax 6.48157 1.82722 -0.240855
lowerneck -0.535715 7.02701 22.2168
upperneck -7.91581 9.49299 -11.6768
head -0.667339 4.68716 -7.04133
rclavicle 0 1.43125e-014
rhumerus -208.115 -141.156 107.408
rradius 32.2135
rwrist -12.507
rhand -25.121 5.28388
rfingers 7.12502
rthumb 1.3947 -24.6913
lclavicle 0 1.43125e-014
lhumerus -394.218 -0.82022 -289.671
lradius 36.3252
lwrist 3.89483
lhand -23.6093 -6.57338
lfingers 7.12502
lthumb 2.8547 23.3873
rfemur -112.88 -119.808 17.0807
rtibia 153.841
rfoot -72.9471 43.1925
rtoes -12.8188
lfemur -56.0133 55.8973 14.9576
ltibia 147.348
lfoot -36.8139 -16.2417
ltoes -21.4267
169
root 0.482043 5.74835 19.1687 -402.028 -185.192 -11.0198
lowerback 48.5318 -18.1729 2.16702
upperback 24.3878 -8.29938 -2.48417
thorax 6.55725 1.95163 -0.435654
lowerneck -0.837391 7.04306 22.0884
upperneck -7.62871 9.45615 -11.5047
head -0.556601 4.66827 -6.94661
rclavicle 1.74931e-014 -6.36111e-014
rhumerus -208.589 -140.669 107.185
rradius 31.6117
rwrist -12.2055
rhand -25.2299 5.25817
rfingers 7.12502
rthumb 1.28954 -24.7177
lclavicle 1.74931e-014 -6.36111e-014
lhumerus -393.238 2.7434 -289.476
lradius 32.2725
lwrist 0.229325
lhand -23.8714 -6.45573
lfingers 7.12502
lthumb 2.60157 23.5082
rfemur -113.625 -121.001 17.955
rtibia 153.987
rfoot -73.3927 42.7605
rtoes -12.5812
lfemur -55.7583 55.5992 15.8229
ltibia 147.248
lfoot -36.5391 -17.0981
ltoes -21.2359
170
root 0.525316 5.71192 19.1955 -402.549 -184.896 -10.8091
lowerback 48.3483 -17.9289 1.99269
upperback 24.4569 -8.08873 -2.6543
thorax 6.65092 2.07951 -0.607453
lowerneck -1.20882 7.06276 21.9601
upperneck -7.25518 9.40569 -11.3572
head -0.409282 4.64299 -6.85517
rclavicle -5.24792e-014 1.46306e-013
rhumerus -209.061 -140.091 107.008
rradius 30.942
rwrist -11.8504
rhand -25.3927 5.28256
rfingers 7.12502
rthumb 1.13225 -24.6942
lclavicle -5.24792e-014 1.46306e-013
lhumerus -392.279 7.22551 -289.784
lradius 28.1461
lwrist -4.45536
lhand -23.7311 -6.57749
lfingers 7.12502
lthumb 2.73701 23.3847
rfemur -114.289 -122.032 18.7027
rtibia 154.117
rfoot -73.7265 42.3142
rtoes -12.432
lfemur -55.5882 55.2223 16.4508
ltibia 147.12
lfoot -36.2681 -17.8732
ltoes -21.1414
171
root 0.568959 5.68042 19.2241 -403.042 -184.537 -10.6687
lowerback 48.2004 -17.6143 1.70126
upperback 24.4617 -7.86522 -2.75603
thorax 6.68909 2.17783 -0.661874
lowerneck -1.47913 7.05692 21.7078
upperneck -6.88361 9.33345 -11.2565
head -0.282964 4.60865 -6.76579
rclavicle 9.22361e-014 8.74653e-014
rhumerus -209.575 -139.617 106.991
rradius 30.248
rwrist -11.594
rhand -25.4739 5.23073
rfingers 7.12502
rthumb 1.05384 -24.7464
lclavicle 9.22361e-014 8.74653e-014
lhumerus -391.661 12.5493 -290.561
lradius 24.1848
lwrist -9.72532
lhand -23.4713 -6.90393
lfingers 7.12502
lthumb 2.98791 23.0549
rfemur -114.927 -122.805 19.3791
rtibia 154.212
rfoot -73.8845 41.9648
rtoes -12.2378
lfemur -55.7217 54.5851 16.5543
ltibia 146.962
lfoot -35.8745 -18.4465
ltoes -21.0571
172
root 0.610919 5.65117 19.2521 -403.545 -184.219 -10.5502
lowerback 48.0459 -17.2611 1.38909
upperback 24.5 -7.58085 -2.83819
thorax 6.77513 2.30927 -0.701486
lowerneck -1.71871 7.03438 21.5473
upperneck -6.56945 9.23412 -11.3698
head -0.165036 4.55964 -6.76304
rclavicle 4.45278e-014 9.54166e-015
rhumerus -210.057 -138.978 107.048
rradius 29.4897
rwrist -11.2229
rhand -25.5762 5.22788
rfingers 7.12502
rthumb 0.95511 -24.7497
lclavicle 4.45278e-014 9.54166e-015
lhumerus -391.396 18.7459 -292.001
lradius 20.4536
lwrist -15.7645
lhand -23.3371 -7.30924
lfingers 7.12502
lthumb 3.11751 22.6477
rfemur -115.554 -123.534 20.0457
rtibia 154.29
rfoot -74.0148 41.7143
rtoes -12.0132
lfemur -55.6846 54.0497 16.8174
ltibia 146.795
lfoot -35.5397 -19.1081
ltoes -21.0097
